<svg width="512" height="512" viewBox="0 0 512 512" xmlns="http://www.w3.org/2000/svg" role="img" aria-labelledby="title desc">
  <title id="title">CarbonConstruct logo on dark background</title>
  <desc id="desc">Green leaf with circuit branches on a deep blue field inside a white frame.</desc>
  <defs>
    <linearGradient id="darkLeaf" x1="0%" y1="0%" x2="0%" y2="100%">
      <stop offset="0%" stop-color="#9CFF92" />
      <stop offset="50%" stop-color="#46D96B" />
      <stop offset="100%" stop-color="#1F8B44" />
    </linearGradient>
    <linearGradient id="darkLeafHighlight" x1="15%" y1="10%" x2="85%" y2="90%">
      <stop offset="0%" stop-color="#E8FFE1" stop-opacity="0.95" />
      <stop offset="100%" stop-color="#4DAF5D" stop-opacity="0.25" />
    </linearGradient>
  </defs>
  <rect width="512" height="512" rx="64" ry="64" fill="#13283D" />
  <rect x="80" y="80" width="352" height="352" rx="40" ry="40" fill="none" stroke="#F5FAFF" stroke-width="28" stroke-linejoin="round" />
  <path d="M192 360c44-96 144-160 208-176-16 120-92 216-188 216-36 0-64-16-72-40-4-12-2-26 4-40 8-18 24-36 44-52" fill="url(#darkLeaf)" />
  <path d="M206 346c26-70 110-138 174-156-4 56-28 110-64 148-28 30-66 54-106 54-20 0-36-6-46-16-6-6-8-14-6-22 2-8 10-18 22-26" fill="url(#darkLeafHighlight)" />
  <path d="M208 352c32-88 128-152 184-168" fill="none" stroke="#1C6B3A" stroke-width="18" stroke-linecap="round" />
  <path d="M160 352c0-40 56-72 96-96" fill="none" stroke="#1C6B3A" stroke-width="18" stroke-linecap="round" />
  <path d="M184 384h56" stroke="#1C6B3A" stroke-width="18" stroke-linecap="round" />
  <circle cx="160" cy="384" r="24" fill="#13283D" stroke="#1C6B3A" stroke-width="14" />
  <path d="M272 416h40" stroke="#1C6B3A" stroke-width="18" stroke-linecap="round" />
  <circle cx="248" cy="416" r="24" fill="#13283D" stroke="#1C6B3A" stroke-width="14" />
  <path d="M344 368h24" stroke="#1C6B3A" stroke-width="18" stroke-linecap="round" />
  <circle cx="344" cy="368" r="20" fill="#13283D" stroke="#1C6B3A" stroke-width="12" />
</svg>
